<svg width="24" height="24" viewBox="0 0 24 24" fill="none" xmlns="http://www.w3.org/2000/svg">
<path d="M6.01416 3.9978C3.80516 3.9978 2.01416 5.7888 2.01416 7.9978V19.9978C2.01416 20.8888 3.10315 21.3468 3.73315 20.7168L7.45215 17.9978H18.0142C20.2232 17.9978 22.0142 16.2068 22.0142 13.9978V7.9978C22.0142 5.7888 20.2232 3.9978 18.0142 3.9978H6.01416ZM7.01416 7.9978H17.0142C17.5662 7.9978 18.0142 8.4458 18.0142 8.9978C18.0142 9.5498 17.5662 9.9978 17.0142 9.9978H7.01416C6.46216 9.9978 6.01416 9.5498 6.01416 8.9978C6.01416 8.4458 6.46216 7.9978 7.01416 7.9978ZM7.01416 11.9978H14.0142C14.5662 11.9978 15.0142 12.4458 15.0142 12.9978C15.0142 13.5498 14.5662 13.9978 14.0142 13.9978H7.01416C6.46216 13.9978 6.01416 13.5498 6.01416 12.9978C6.01416 12.4458 6.46216 11.9978 7.01416 11.9978Z" fill="white"/>
</svg>
