<svg width="24" height="24" viewBox="0 0 24 24" fill="none" xmlns="http://www.w3.org/2000/svg">
<path d="M3.39974 3.39477C3.83874 2.93277 4.58474 2.81978 5.04374 3.03478C5.04374 3.03478 19.6317 10.5758 20.0067 10.7518C20.3817 10.9278 21.0087 11.2978 20.9957 11.9308C20.9827 12.5638 20.3397 12.8628 19.9777 13.0288C19.6157 13.1958 5.40874 20.6828 5.06974 20.8168C4.58474 21.0088 3.93974 20.9528 3.46674 20.4978C2.99374 20.0428 2.98874 19.3948 3.05874 18.9828C3.15974 18.3958 3.89774 14.6188 3.97474 13.9198C4.02974 13.4208 4.38675 12.9708 4.99575 12.9298C6.57075 12.8238 11.0117 12.5818 11.9937 12.4368C12.2537 12.3988 12.5137 12.2198 12.4967 11.8998C12.4797 11.5808 12.2087 11.4468 12.0107 11.4308L4.99575 10.9298C4.63875 10.9018 4.11675 10.6828 3.97175 9.92577C3.75475 8.79877 3.27074 6.35678 3.00574 4.60778C2.93274 4.12078 3.13574 3.67377 3.39974 3.39477Z" fill="white"/>
</svg>
